<svg id="Layer_1" data-name="Layer 1" xmlns="http://www.w3.org/2000/svg" viewBox="0 0 504.49 31.79"><defs><style>.cls-1{fill:#fbc41b;}</style></defs><title>deco</title><path class="cls-1" d="M908.43,562.13c3.54-2.61,7.75-.13,10.19,1.86a15.18,15.18,0,0,0,8.79,3.5c11.36.56,12.87-12.25,12.87-12.25s-7.45,12-16,7.7a13.28,13.28,0,0,1-6.89-10.48,7.51,7.51,0,0,0,.33,7.19C915.56,558.59,912,557.57,908.43,562.13Z" transform="translate(-689.11 -550.94)"/><path class="cls-1" d="M976.82,563.13c-3.46-2.71-7.73-.36-10.24,1.56a15.2,15.2,0,0,1-8.89,3.25c-11.37.22-12.5-12.62-12.5-12.62s7.09,12.24,15.75,8.16a13.25,13.25,0,0,0,7.2-10.28,7.52,7.52,0,0,1-.54,7.18C969.8,559.39,973.41,558.47,976.82,563.13Z" transform="translate(-689.11 -550.94)"/><path class="cls-1" d="M931.85,570.3c4,.83,7.74-4.07,10-8,.27-.48.53-.94.76-1.37.21.43.45.9.71,1.37,2.18,4,5.77,9.05,9.8,8.34-3.21,4.81-8,2.22-10.57-5.74C939.83,572.75,934.92,575.2,931.85,570.3Z" transform="translate(-689.11 -550.94)"/><path class="cls-1" d="M944,575.26c.43,2.42-1.64,5.66-1.64,5.66s-2-3.3-1.48-5.71A1.58,1.58,0,0,1,944,575.26Z" transform="translate(-689.11 -550.94)"/><path class="cls-1" d="M908.46,554.48a326.14,326.14,0,0,0-69.67-2.86,252,252,0,0,0-27.94,3.18A238.07,238.07,0,0,0,782,562.17c-16.26,5-33.5,8.53-50.58,7.54-5.84-.34-12.86-.93-18.13-3.81-.84-.46-1.62.82-.77,1.29,4.07,2.22,9.18,3,13.71,3.55,14.64,1.83,29.73-.35,44-3.78,10.2-2.47,20-6.16,30.25-8.54a216.94,216.94,0,0,1,29.1-4.59,335.92,335.92,0,0,1,51.54-.58c8.92.55,18.21,1.31,26.91,2.67.94.14,1.37-1.29.42-1.44Z" transform="translate(-689.11 -550.94)"/><path class="cls-1" d="M975,556.85a325.72,325.72,0,0,1,71.59-.54,238.56,238.56,0,0,1,29,4.54c10,2.24,19.46,5.78,29.21,8.85,15.27,4.8,31.5,8.3,47.6,7.58,5.73-.26,12.43-.76,17.66-3.42.86-.43.13-1.74-.73-1.3-4.27,2.16-9.74,2.71-14.41,3.07-15.59,1.19-31.38-1.92-46.26-6.32-9.92-2.94-19.52-6.75-29.6-9.19a232.61,232.61,0,0,0-27.87-4.83,340.67,340.67,0,0,0-50.9-1.75c-8.56.31-17.16.78-25.67,1.86-.95.12-.57,1.57.38,1.45Z" transform="translate(-689.11 -550.94)"/><path class="cls-1" d="M1182.92,582.73c.83-4-4.1-7.7-8.08-10l-1.38-.75c.44-.21.91-.45,1.39-.71,4-2.17,9.1-5.74,8.38-9.75,4.84,3.19,2.23,8-5.77,10.51C1185.38,574.8,1187.85,579.68,1182.92,582.73Z" transform="translate(-689.11 -550.94)"/><path class="cls-1" d="M1187.91,570.65c2.44-.42,5.69,1.64,5.69,1.64s-3.31,2-5.74,1.46A1.56,1.56,0,0,1,1187.91,570.65Z" transform="translate(-689.11 -550.94)"/><path class="cls-1" d="M699.48,575.62c-.72-4,4.32-7.57,8.36-9.74l1.41-.72c-.44-.22-.9-.47-1.37-.75-4-2.29-8.93-6-8.09-10-4.93,3.05-2.46,7.94,5.46,10.68C697.25,567.62,694.64,572.43,699.48,575.62Z" transform="translate(-689.11 -550.94)"/><path class="cls-1" d="M694.85,563.4c-2.43-.49-5.74,1.47-5.74,1.47s3.25,2,5.69,1.63A1.56,1.56,0,0,0,694.85,563.4Z" transform="translate(-689.11 -550.94)"/></svg>