<svg id="Layer_1" data-name="Layer 1" xmlns="http://www.w3.org/2000/svg" viewBox="0 0 507.55 67.38"><title>fork</title><path d="M941.76,546.45c7.68,6.72,15.77,13.46,26.26,13.82,47.57,1.64,94.36-5.53,141-14,1.59-.28,4.28-1.73,4.24-2.56-.1-3.11-2.89-2.21-4.66-2.13-39.77,1.82-79.54,3.77-119.33,5.45-2.86.13-8.32,2.22-8.38-2-.06-4.52,5.59-3.14,8.88-3.44q60.36-5.71,120.76-11.29c1-.1,2-1.24,2.93-1.87-1-.55-2-1.6-2.94-1.58q-62.41,1.61-124.82,3.33c-1.94,0-4.92.79-5-2.3s2.87-2.47,4.84-2.61q62.54-4.8,125.08-9.64c1-.08,2-1.41,2.94-2.15-1-.48-2.08-1.38-3.11-1.4q-40.82-.1-81.63,0c-.59.06-27.32.68-41,.59-2.51,0-6.45,1-6.45-2.91s3.93-2.49,6.25-2.59c40.28-1.76,80.58-3.38,120.86-5.19,1.68-.07,4.78-1.63,4.72-2.26-.27-3.06-3-1.91-4.76-2-28.35-1.28-56.69-3.43-85-3.43-22.13,0-44.75-4.57-66.34,4.2C946,503,938,514.09,925.32,515.22c-26.25,2.33-52.53,1.84-78.84,1.41-69.48-1.15-138.43-7.57-206.82-20.49-10.66-2-21.23-1.73-28.17,8.47-6.63,9.77-7.47,21-1.34,31.3,8,13.52,21.09,13.46,34.11,11.62,81-11.42,162.29-19.47,244.19-15.79C907,532.58,926.14,532.78,941.76,546.45Zm26.71-3.21c2.3.17,4.16,6.25,6.23,9.62-1.8.38-3.69,1.38-5.39,1.08C958.08,552,947.36,549,943,535.46,949.66,545.71,959.39,542.5,968.47,543.24ZM645.57,543c-10,3.53-19.58,3.33-32.2-5.74C626.41,542.7,636,543.12,645.57,543Z" transform="translate(-606 -493.12)"/></svg>