<svg id="Layer_1" data-name="Layer 1" xmlns="http://www.w3.org/2000/svg" viewBox="0 0 627.91 64"><defs><style>.cls-1{fill:#fff;}</style></defs><title>knife</title><path d="M1095.74,492.43c13.85,3.13,21.56,18,18.5,34.45S1097.91,552,1080.42,550c-74.24-8.36-159.94-18.12-234.8-16.67-49.83,1-30,5.86-49.64,18.23-10.33,6.51-27.27,2-41.19,1.65q-61-1.79-121.94-4.38c-43.91-1.87-88.09-2.5-129.85-19.68-8.06-3.31-16.59-7.4-15.82-20.42-.12-.42-.18-.32-.18-.75,0-1.2.44-2.81,1.18-2.81H488c6.37-8.63,14.25-5.36,20.89-5.4,71.25-.37,142.54,1.21,213.74-.89,60.15-1.77,119.77,6,179.72,6.25,51.41.21,102.5-5.28,153.52-11.37C1069.1,492.2,1082.45,489.42,1095.74,492.43Z" transform="translate(-487 -491.09)"/><path class="cls-1" d="M1108.64,515.4c-10.32-18.33-35.73-15.82-45.65-15.71C1073.28,496.05,1103,494.12,1108.64,515.4Z" transform="translate(-487 -491.09)"/><path class="cls-1" d="M786.46,508.75s-268.6-3.93-278-1.31,6.41,4.59,38.93,5.9,239.05-4.59,239.05-4.59Z" transform="translate(-487 -491.09)"/></svg>