<svg id="Layer_1" data-name="Layer 1" xmlns="http://www.w3.org/2000/svg" viewBox="0 0 508.4 322.49"><defs><style>.cls-1,.cls-2{fill:#fff;}.cls-2,.cls-4{isolation:isolate;}.cls-2{font-size:38.44px;font-family:ArialMT, Arial;}.cls-3,.cls-4{font-size:29.98px;fill:#fbc41b;font-family:AlexBrush-Regular, Alex Brush;letter-spacing:0.26em;}</style></defs><title>logo4</title><path class="cls-1" d="M287.67,96.44c-.11.44-.23,1-.35,1.6A9.72,9.72,0,0,1,287.67,96.44Z" transform="translate(-0.03 0)"/><path class="cls-1" d="M287.81,96.14a1,1,0,0,0-.12.23,5.43,5.43,0,0,1,.23-.88A4.64,4.64,0,0,1,287.81,96.14Z" transform="translate(-0.03 0)"/><path class="cls-1" d="M293.82,77.44c-.07.25-.18.6-.31,1C293.58,78.18,293.67,77.85,293.82,77.44Z" transform="translate(-0.03 0)"/><path class="cls-1" d="M296.38,71.34a1.06,1.06,0,0,1,.18-.33A2.68,2.68,0,0,1,296.38,71.34Z" transform="translate(-0.03 0)"/><polygon class="cls-1" points="117.86 132.26 115.84 127.97 111.32 127.28 114.59 123.94 113.82 119.23 117.86 121.45 121.91 119.23 121.13 123.94 124.41 127.28 119.88 127.97 117.86 132.26"/><polygon class="cls-1" points="64.07 132.26 62.05 127.97 57.53 127.28 60.8 123.94 60.03 119.23 64.07 121.45 68.12 119.23 67.35 123.94 70.62 127.28 66.1 127.97 64.07 132.26"/><text class="cls-2" transform="translate(298.72 191.92) scale(0.95 1)">1991</text><path d="M24.67,138c18.2,2,36.53,5.07,54.93,5.83,23.67,1,50.52-20.94,58.53-46.09a143.24,143.24,0,0,1,15.8-34c7.38-11.51,19.74-10.64,29.66-10.4,60.64,1.52,120.64-8.31,181-11.88,36.08-2.13,104.88-3.19,126.73,28.87,14.76,21.64,15.68,99.86,16.33,114.41.73,16.33,2.56,33.2-4.34,48.68-8.23,18.47-32.46,32.51-51,31.18-50.65-3.63-101-4.29-151.76,3.19-29.28,4.31-55.41,1.4-85-3-10.44-1.53-25.29-4.34-38.16-7.6-20.93-5.3-25.7-19.24-34.62-35C122.35,186.07,92.7,178,57.46,183.31c-14,2.11-28.13,4.63-42.2-1.14C2.35,176.88-.74,165.32.18,155,1.19,143.68,13.78,136.92,24.67,138Z" transform="translate(-0.03 0)"/><path class="cls-1" d="M396.66,57.34s45.84-7.63,67.72,6.55,25,38.18,25,38.18S478.44,55.16,396.66,57.34Z" transform="translate(-0.03 0)"/><path class="cls-1" d="M498.75,202.42s-4.69,56.45-68,49.09C430.78,251.51,483.13,249.87,498.75,202.42Z" transform="translate(-0.03 0)"/><path class="cls-1" d="M151.86,220.42s4.68,30.27,32.81,31.91C184.67,252.33,162,246.6,151.86,220.42Z" transform="translate(-0.03 0)"/><path class="cls-1" d="M44.43,148s50.79,9.3,71.75-5.86c17.71-12.82,26-31.37,36.2-61.36,6.91-20.41,21.94-21.34,31.9-20.32,0,0-20.44-1.23-27.74,22.23-12.95,41.65-24.74,52.36-38.54,61.9C108,151.51,74,158.52,44.43,148Z" transform="translate(-0.03 0)"/><rect class="cls-1" x="212.17" y="89.8" width="25.9" height="1.43"/><rect class="cls-1" x="212.17" y="104.07" width="25.9" height="1.43"/><rect class="cls-1" x="212.17" y="95.51" width="25.9" height="1.43"/><rect class="cls-1" x="431.66" y="191.16" width="25.9" height="1.43"/><rect class="cls-1" x="431.66" y="196.87" width="25.9" height="1.43"/><rect class="cls-1" x="431.66" y="205.43" width="25.9" height="1.43"/><path d="M377.72,314c4.64,4.06,9.53,8.14,15.87,8.35,28.76,1,57-3.34,85.25-8.44,1-.17,2.59-1,2.57-1.55-.06-1.88-1.74-1.33-2.82-1.29-24,1.1-48.08,2.28-72.13,3.3-1.73.07-5,1.34-5.07-1.19,0-2.74,3.38-1.9,5.37-2.08,24.33-2.31,48.66-4.53,73-6.83.62-.06,1.18-.74,1.77-1.13-.6-.33-1.2-1-1.78-.95l-75.45,2c-1.17,0-3,.48-3-1.39s1.74-1.5,2.93-1.58l75.61-5.83c.62,0,1.18-.85,1.77-1.3-.63-.29-1.25-.83-1.87-.84H430.39c-.35,0-16.51.41-24.77.35-1.52,0-3.9.63-3.9-1.76s2.37-1.5,3.77-1.56c24.36-1.06,48.71-2,73.07-3.14,1,0,2.89-1,2.85-1.36-.16-1.85-1.8-1.16-2.88-1.21-17.13-.77-34.27-2.07-51.4-2.07-13.43,0-27.13-2.77-40.13,2.5-6.68,2.72-11.55,9.41-19.19,10.1-15.87,1.41-31.75,1.11-47.66.85a738.53,738.53,0,0,1-125-12.38c-6.44-1.23-12.83-1.05-17,5.12-4,5.9-4.52,12.67-.82,18.92,4.83,8.17,12.75,8.13,20.62,7,49-6.9,98.11-11.77,147.62-9.54C356.7,305.62,368.27,305.75,377.72,314Zm16.15-1.94c1.38.1,2.51,3.77,3.76,5.82-1.09.23-2.23.83-3.26.65-6.79-1.18-13.27-3-15.9-11.17,4,6.2,9.9,4.26,15.4,4.71Zm-195.21-.13c-6,2.13-11.83,2-19.46-3.48a44.75,44.75,0,0,0,19.46,3.49Z" transform="translate(-0.03 0)"/><path class="cls-1" d="M179.2,308.46a44.62,44.62,0,0,0,19.46,3.48C192.63,314.07,186.83,314,179.2,308.46Z" transform="translate(-0.03 0)"/><path class="cls-1" d="M394.37,318.54c-6.79-1.18-13.27-3-15.9-11.17,4,6.19,9.9,4.25,15.4,4.7,1.38.1,2.51,3.77,3.76,5.82C396.54,318.12,395.4,318.72,394.37,318.54Z" transform="translate(-0.03 0)"/><path d="M446.64.67c6.87,1.55,10.7,8.92,9.18,17.09S447.71,30.22,439,29.25c-36.84-4.15-79.37-9-116.53-8.27-24.73.47-14.88,2.9-24.63,9-5.13,3.23-13.54,1-20.45.82q-30.26-.89-60.51-2.17c-21.8-.93-43.72-1.24-64.45-9.77-4-1.65-8.23-3.67-7.85-10.13-.06-.21-.09-.16-.09-.38,0-.59.22-1.39.58-1.39H145c3.16-4.28,7.07-2.66,10.37-2.68,35.36-.18,70.74.6,106.07-.44,29.86-.88,59.45,3,89.2,3.1,25.52.1,50.87-2.62,76.2-5.64C433.42.55,440-.83,446.64.67Z" transform="translate(-0.03 0)"/><path class="cls-1" d="M453,12.07c-5.12-9.1-17.74-7.85-22.66-7.8C435.49,2.46,450.25,1.5,453,12.07Z" transform="translate(-0.03 0)"/><path class="cls-1" d="M293.14,8.77s-133.31-1.95-138-.65,3.18,2.27,19.32,2.92S293.1,8.77,293.1,8.77Z" transform="translate(-0.03 0)"/><text class="cls-3" transform="translate(247.11 106.78) scale(0.95 1)">CHEZ</text><text class="cls-4" transform="translate(174.8 206.86) scale(0.95 1)">GONZAGUE</text><polygon class="cls-1" points="247.1 158.14 244.23 152.04 237.8 151.06 242.45 146.31 241.35 139.6 247.1 142.77 252.86 139.6 251.76 146.31 256.41 151.06 249.98 152.04 247.1 158.14"/><polygon class="cls-1" points="315.96 158.14 313.08 152.04 306.65 151.06 311.3 146.31 310.2 139.6 315.96 142.77 321.71 139.6 320.61 146.31 325.26 151.06 318.83 152.04 315.96 158.14"/><polygon class="cls-1" points="379.35 155.28 376.47 149.18 370.04 148.2 374.7 143.45 373.6 136.74 379.35 139.91 385.1 136.74 384.01 143.45 388.66 148.2 382.23 149.18 379.35 155.28"/></svg>