<svg id="Layer_1" data-name="Layer 1" xmlns="http://www.w3.org/2000/svg" viewBox="0 0 508.42 322.43"><defs><style>.cls-1,.cls-2{fill:#fff;}.cls-2,.cls-3,.cls-4{isolation:isolate;}.cls-2{font-size:38.44px;font-family:ArialMT, Arial;}.cls-3,.cls-4{font-size:36px;fill:#fbc41b;font-family:AlexBrush-Regular, Alex Brush;}.cls-3{letter-spacing:0.25em;}.cls-4{letter-spacing:0.19em;}</style></defs><title>logo7</title><path class="cls-1" d="M287.74,96.39c-.1.4-.2,1-.3,1.6A4.83,4.83,0,0,1,287.74,96.39Z" transform="translate(0 0)"/><path class="cls-1" d="M287.84,96.09c0,.1-.1.1-.1.2a3.09,3.09,0,0,1,.2-.9A1.51,1.51,0,0,1,287.84,96.09Z" transform="translate(0 0)"/><path class="cls-1" d="M293.84,77.39c-.1.3-.2.6-.3,1A4.43,4.43,0,0,0,293.84,77.39Z" transform="translate(0 0)"/><path class="cls-1" d="M296.44,71.29c0-.1.1-.2.2-.3C296.54,71.09,296.44,71.19,296.44,71.29Z" transform="translate(0 0)"/><polygon class="cls-1" points="117.94 132.29 115.94 127.99 111.34 127.29 114.64 123.89 113.84 119.19 117.94 121.39 121.94 119.19 121.24 123.89 124.44 127.29 119.94 127.99 117.94 132.29"/><polygon class="cls-1" points="64.14 132.29 62.14 127.99 57.64 127.29 60.84 123.89 60.14 119.19 64.14 121.39 68.24 119.19 67.44 123.89 70.74 127.29 66.14 127.99 64.14 132.29"/><text class="cls-2" transform="translate(298.79 191.91) scale(0.95 1)">1991</text><path d="M24.74,138c18.2,2,36.5,5.1,54.9,5.8,23.7,1,50.5-20.9,58.5-46.1a146.25,146.25,0,0,1,15.8-34c7.4-11.5,19.7-10.6,29.7-10.4,60.6,1.5,120.6-8.3,181-11.9,36.1-2.1,104.9-3.2,126.7,28.9,14.8,21.6,15.7,99.9,16.3,114.4.7,16.3,2.6,33.2-4.3,48.7-8.2,18.5-32.5,32.5-51,31.2-50.7-3.6-101-4.3-151.8,3.2-29.3,4.3-55.4,1.4-85-3-10.4-1.5-25.3-4.3-38.2-7.6-20.9-5.3-25.7-19.2-34.6-35-20.4-36.1-50.1-44.2-85.3-38.8-14,2.1-28.1,4.6-42.2-1.1-12.9-5.3-16-16.9-15.1-27.1C1.24,143.69,13.84,136.89,24.74,138Z" transform="translate(0 0)"/><path class="cls-1" d="M396.74,57.29s45.8-7.6,67.7,6.5,25,38.2,25,38.2S478.44,55.19,396.74,57.29Z" transform="translate(0 0)"/><path class="cls-1" d="M498.84,202.39s-4.7,56.4-68,49.1C430.84,251.49,483.14,249.89,498.84,202.39Z" transform="translate(0 0)"/><path class="cls-1" d="M151.94,220.39s4.7,30.3,32.8,31.9C184.74,252.29,162,246.59,151.94,220.39Z" transform="translate(0 0)"/><path class="cls-1" d="M44.44,148s50.8,9.3,71.8-5.9c17.7-12.8,26-31.4,36.2-61.4,6.9-20.4,21.9-21.3,31.9-20.3,0,0-20.4-1.2-27.7,22.2-13,41.6-24.7,52.4-38.5,61.9C108,151.49,74,158.49,44.44,148Z" transform="translate(0 0)"/><rect class="cls-1" x="212.24" y="89.79" width="25.9" height="1.4"/><rect class="cls-1" x="212.24" y="101.29" width="25.9" height="1.4"/><rect class="cls-1" x="212.24" y="95.49" width="25.9" height="1.4"/><rect class="cls-1" x="444.69" y="189.79" width="25.9" height="1.4"/><rect class="cls-1" x="444.69" y="195.49" width="25.9" height="1.4"/><rect class="cls-1" x="444.69" y="201.69" width="25.9" height="1.4"/><path d="M377.74,314c4.6,4.1,9.5,8.1,15.9,8.3,28.8,1,57-3.3,85.3-8.4,1-.2,2.6-1,2.6-1.5-.1-1.9-1.7-1.3-2.8-1.3-24,1.1-48.1,2.3-72.1,3.3-1.7.1-5,1.3-5.1-1.2,0-2.7,3.4-1.9,5.4-2.1,24.3-2.3,48.7-4.5,73-6.8a5.85,5.85,0,0,0,1.8-1.1c-.6-.3-1.2-1-1.8-1-25.1.7-50.3,1.3-75.5,2-1.2,0-3,.5-3-1.4s1.7-1.5,2.9-1.6c25.2-1.9,50.4-3.9,75.6-5.8.6,0,1.2-.8,1.8-1.3a5.24,5.24,0,0,0-1.9-.8h-49.3c-.3,0-16.5.4-24.8.3-1.5,0-3.9.6-3.9-1.8s2.4-1.5,3.8-1.6c24.4-1.1,48.7-2,73.1-3.1,1,0,2.9-1,2.8-1.4-.2-1.8-1.8-1.2-2.9-1.2-17.1-.8-34.3-2.1-51.4-2.1-13.4,0-27.1-2.8-40.1,2.5-6.7,2.7-11.5,9.4-19.2,10.1-15.9,1.4-31.8,1.1-47.7.8a738.55,738.55,0,0,1-125-12.4c-6.4-1.2-12.8-1-17,5.1-4,5.9-4.5,12.7-.8,18.9,4.8,8.2,12.8,8.1,20.6,7,49-6.9,98.1-11.8,147.6-9.5C356.74,305.59,368.34,305.79,377.74,314Zm16.2-1.9c1.4.1,2.5,3.8,3.8,5.8-1.1.2-2.2.8-3.3.7-6.8-1.2-13.3-3-15.9-11.2C382.54,313.59,388.44,311.59,393.94,312.09Zm-195.2-.2c-6,2.1-11.8,2-19.5-3.5A43.36,43.36,0,0,0,198.74,311.89Z" transform="translate(0 0)"/><path class="cls-1" d="M179.24,308.49a44.81,44.81,0,0,0,19.5,3.5C192.64,314.09,186.84,314,179.24,308.49Z" transform="translate(0 0)"/><path class="cls-1" d="M394.44,318.49c-6.8-1.2-13.3-3-15.9-11.2,4,6.2,9.9,4.3,15.4,4.7,1.4.1,2.5,3.8,3.8,5.8C396.54,318.09,395.44,318.69,394.44,318.49Z" transform="translate(0 0)"/><path d="M446.64.69c6.9,1.5,10.7,8.9,9.2,17.1s-8.1,12.5-16.8,11.5c-36.8-4.1-79.4-9-116.5-8.3-24.7.5-14.9,2.9-24.6,9-5.1,3.2-13.5,1-20.5.8-20.2-.6-40.3-1.3-60.5-2.2-21.8-.9-43.7-1.2-64.5-9.8-4-1.6-8.2-3.7-7.8-10.1a.63.63,0,0,1-.1-.4c0-.6.2-1.4.6-1.4H145c3.2-4.3,7.1-2.7,10.4-2.7,35.4-.2,70.7.6,106.1-.4,29.9-.9,59.5,3,89.2,3.1,25.5.1,50.9-2.6,76.2-5.6C433.44.49,440-.81,446.64.69Z" transform="translate(0 0)"/><path class="cls-1" d="M453,12.09c-5.1-9.1-17.7-7.9-22.7-7.8C435.54,2.49,450.34,1.49,453,12.09Z" transform="translate(0 0)"/><path class="cls-1" d="M293.14,8.79s-133.3-2-138-.6,3.2,2.3,19.3,2.9S293.14,8.79,293.14,8.79Z" transform="translate(0 0)"/><text class="cls-3" transform="translate(254.21 106.77) scale(0.95 1)">CHEZ</text><text class="cls-4" transform="translate(163.8 206.79) scale(0.95 1)">GONZAGUE</text><polygon class="cls-1" points="247.14 158.09 244.34 151.99 237.84 151.09 242.54 146.29 241.44 139.59 247.14 142.79 252.94 139.59 251.84 146.29 256.44 151.09 250.04 151.99 247.14 158.09"/><polygon class="cls-1" points="316.04 158.09 313.14 151.99 306.74 151.09 311.34 146.29 310.24 139.59 316.04 142.79 321.74 139.59 320.64 146.29 325.34 151.09 318.94 151.99 316.04 158.09"/><polygon class="cls-1" points="379.44 155.29 376.54 149.19 370.14 148.19 374.74 143.39 373.64 136.69 379.44 139.89 385.14 136.69 384.04 143.39 388.74 148.19 382.34 149.19 379.44 155.29"/></svg>