<?xml version="1.0" encoding="utf-8"?>
<!-- Generator: Adobe Illustrator 24.0.2, SVG Export Plug-In . SVG Version: 6.00 Build 0)  -->
<svg version="1.1" id="Layer_1" xmlns="http://www.w3.org/2000/svg" xmlns:xlink="http://www.w3.org/1999/xlink" x="0px" y="0px"
	 viewBox="0 0 508.4 322.5" style="enable-background:new 0 0 508.4 322.5;" xml:space="preserve">
<style type="text/css">
	.st0{fill:#FFFFFF;}
	.st1{font-family:'ArialMT';}
	.st2{font-size:38.44px;}
	.st3{fill:#FBC41B;}
	.st4{font-family:'AlexBrush-Regular';}
	.st5{font-size:36px;}
	.st6{letter-spacing:8.4;}
	.st7{font-size:34px;}
	.st8{letter-spacing:6.3;}
</style>
<title>logo2</title>
<path class="st0" d="M287.7,96.4c-0.1,0.4-0.2,1-0.3,1.6C287.4,97.5,287.5,97,287.7,96.4z"/>
<path class="st0" d="M287.8,96.1c0,0.1-0.1,0.1-0.1,0.2c0-0.3,0.1-0.6,0.2-0.9C287.9,95.7,287.9,95.9,287.8,96.1z"/>
<path class="st0" d="M293.8,77.4c-0.1,0.3-0.2,0.6-0.3,1C293.6,78.2,293.7,77.9,293.8,77.4z"/>
<path class="st0" d="M296.4,71.3c0-0.1,0.1-0.2,0.2-0.3C296.5,71.1,296.4,71.2,296.4,71.3z"/>
<polygon class="st0" points="117.9,132.3 115.9,128 111.3,127.3 114.6,123.9 113.8,119.2 117.9,121.4 121.9,119.2 121.2,123.9 
	124.4,127.3 119.9,128 "/>
<polygon class="st0" points="64.1,132.3 62.1,128 57.6,127.3 60.8,123.9 60.1,119.2 64.1,121.4 68.2,119.2 67.4,123.9 70.7,127.3 
	66.1,128 "/>
<text transform="matrix(0.95 0 0 1 298.75 191.9199)" class="st0 st1 st2">1991</text>
<path d="M24.7,138c18.2,2,36.5,5.1,54.9,5.8c23.7,1,50.5-20.9,58.5-46.1c3.8-12,9.1-23.4,15.8-34c7.4-11.5,19.7-10.6,29.7-10.4
	c60.6,1.5,120.6-8.3,181-11.9c36.1-2.1,104.9-3.2,126.7,28.9c14.8,21.6,15.7,99.9,16.3,114.4c0.7,16.3,2.6,33.2-4.3,48.7
	c-8.2,18.5-32.5,32.5-51,31.2c-50.7-3.6-101-4.3-151.8,3.2c-29.3,4.3-55.4,1.4-85-3c-10.4-1.5-25.3-4.3-38.2-7.6
	c-20.9-5.3-25.7-19.2-34.6-35c-20.4-36.1-50.1-44.2-85.3-38.8c-14,2.1-28.1,4.6-42.2-1.1c-12.9-5.3-16-16.9-15.1-27.1
	C1.2,143.7,13.8,136.9,24.7,138z"/>
<path class="st0" d="M396.7,57.3c0,0,45.8-7.6,67.7,6.5s25,38.2,25,38.2S478.4,55.2,396.7,57.3z"/>
<path class="st0" d="M498.8,202.4c0,0-4.7,56.4-68,49.1C430.8,251.5,483.1,249.9,498.8,202.4z"/>
<path class="st0" d="M151.9,220.4c0,0,4.7,30.3,32.8,31.9C184.7,252.3,162,246.6,151.9,220.4z"/>
<path class="st0" d="M44.4,148c0,0,50.8,9.3,71.8-5.9c17.7-12.8,26-31.4,36.2-61.4c6.9-20.4,21.9-21.3,31.9-20.3
	c0,0-20.4-1.2-27.7,22.2c-13,41.6-24.7,52.4-38.5,61.9C108,151.5,74,158.5,44.4,148z"/>
<rect x="212.2" y="89.8" class="st0" width="25.9" height="1.4"/>
<rect x="212.2" y="104.1" class="st0" width="25.9" height="1.4"/>
<rect x="212.2" y="95.5" class="st0" width="25.9" height="1.4"/>
<rect x="431.7" y="191.2" class="st0" width="25.9" height="1.4"/>
<rect x="431.7" y="196.9" class="st0" width="25.9" height="1.4"/>
<rect x="431.7" y="205.4" class="st0" width="25.9" height="1.4"/>
<path d="M377.7,314c4.6,4.1,9.5,8.1,15.9,8.3c28.8,1,57-3.3,85.3-8.4c1-0.2,2.6-1,2.6-1.5c-0.1-1.9-1.7-1.3-2.8-1.3
	c-24,1.1-48.1,2.3-72.1,3.3c-1.7,0.1-5,1.3-5.1-1.2c0-2.7,3.4-1.9,5.4-2.1c24.3-2.3,48.7-4.5,73-6.8c0.6-0.1,1.2-0.7,1.8-1.1
	c-0.6-0.3-1.2-1-1.8-1c-25.1,0.7-50.3,1.3-75.5,2c-1.2,0-3,0.5-3-1.4s1.7-1.5,2.9-1.6c25.2-1.9,50.4-3.9,75.6-5.8
	c0.6,0,1.2-0.8,1.8-1.3c-0.6-0.3-1.3-0.8-1.9-0.8c-16.5,0-32.9,0-49.3,0c-0.3,0-16.5,0.4-24.8,0.3c-1.5,0-3.9,0.6-3.9-1.8
	s2.4-1.5,3.8-1.6c24.4-1.1,48.7-2,73.1-3.1c1,0,2.9-1,2.8-1.4c-0.2-1.8-1.8-1.2-2.9-1.2c-17.1-0.8-34.3-2.1-51.4-2.1
	c-13.4,0-27.1-2.8-40.1,2.5c-6.7,2.7-11.5,9.4-19.2,10.1c-15.9,1.4-31.8,1.1-47.7,0.8c-41.9-0.6-83.8-4.7-125-12.4
	c-6.4-1.2-12.8-1-17,5.1c-4,5.9-4.5,12.7-0.8,18.9c4.8,8.2,12.8,8.1,20.6,7c49-6.9,98.1-11.8,147.6-9.5
	C356.7,305.6,368.3,305.8,377.7,314z M393.9,312.1c1.4,0.1,2.5,3.8,3.8,5.8c-1.1,0.2-2.2,0.8-3.3,0.7c-6.8-1.2-13.3-3-15.9-11.2
	C382.5,313.6,388.4,311.6,393.9,312.1L393.9,312.1z M198.7,311.9c-6,2.1-11.8,2-19.5-3.5C185.3,311.1,192,312.2,198.7,311.9
	L198.7,311.9z"/>
<path class="st0" d="M179.2,308.5c6.1,2.6,12.8,3.8,19.5,3.5C192.6,314.1,186.8,314,179.2,308.5z"/>
<path class="st0" d="M394.4,318.5c-6.8-1.2-13.3-3-15.9-11.2c4,6.2,9.9,4.3,15.4,4.7c1.4,0.1,2.5,3.8,3.8,5.8
	C396.5,318.1,395.4,318.7,394.4,318.5z"/>
<path d="M446.6,0.7c6.9,1.5,10.7,8.9,9.2,17.1s-8.1,12.5-16.8,11.5c-36.8-4.1-79.4-9-116.5-8.3c-24.7,0.5-14.9,2.9-24.6,9
	c-5.1,3.2-13.5,1-20.5,0.8c-20.2-0.6-40.3-1.3-60.5-2.2c-21.8-0.9-43.7-1.2-64.5-9.8c-4-1.6-8.2-3.7-7.8-10.1
	c-0.1-0.2-0.1-0.2-0.1-0.4c0-0.6,0.2-1.4,0.6-1.4H145c3.2-4.3,7.1-2.7,10.4-2.7c35.4-0.2,70.7,0.6,106.1-0.4
	c29.9-0.9,59.5,3,89.2,3.1c25.5,0.1,50.9-2.6,76.2-5.6C433.4,0.5,440-0.8,446.6,0.7z"/>
<path class="st0" d="M453,12.1c-5.1-9.1-17.7-7.9-22.7-7.8C435.5,2.5,450.3,1.5,453,12.1z"/>
<path class="st0" d="M293.1,8.8c0,0-133.3-2-138-0.6s3.2,2.3,19.3,2.9S293.1,8.8,293.1,8.8L293.1,8.8z"/>
<g>
	<text transform="matrix(0.95 0 0 1 247.1353 106.7813)" class="st3 st4 st5 st6">CHEZ</text>
</g>
<text transform="matrix(0.95 0 0 1 168.3 206.8)" class="st3 st4 st7 st8">GONZAGUE</text>
<polygon class="st0" points="247.1,158.1 244.3,152 237.8,151.1 242.5,146.3 241.4,139.6 247.1,142.8 252.9,139.6 251.8,146.3 
	256.4,151.1 250,152 "/>
<polygon class="st0" points="316,158.1 313.1,152 306.7,151.1 311.3,146.3 310.2,139.6 316,142.8 321.7,139.6 320.6,146.3 
	325.3,151.1 318.9,152 "/>
<polygon class="st0" points="379.4,155.3 376.5,149.2 370.1,148.2 374.7,143.4 373.6,136.7 379.4,139.9 385.1,136.7 384,143.4 
	388.7,148.2 382.3,149.2 "/>
</svg>
